<svg width="435" height="957" viewBox="0 0 435 957" fill="none" xmlns="http://www.w3.org/2000/svg">
<mask id="path-1-outside-1_374_74" maskUnits="userSpaceOnUse" x="0" y="0" width="432" height="957" fill="black">
<rect fill="white" width="432" height="957"/>
<path d="M10 70C10 42.3858 32.3858 20 60 20H372C399.614 20 422 42.3858 422 70V887C422 914.614 399.614 937 372 937H60C32.3858 937 10 914.614 10 887V70Z"/>
</mask>
<path d="M0 60C0 26.8629 26.8629 0 60 0H372C405.137 0 432 26.8629 432 60L412 70C412 53.4315 394.091 40 372 40H60C37.9086 40 20 53.4315 20 70L0 60ZM432 897C432 930.137 405.137 957 372 957H60C26.8629 957 0 930.137 0 897L20 887C20 903.569 37.9086 917 60 917H372C394.091 917 412 903.569 412 887L432 897ZM60 957C26.8629 957 0 930.137 0 897V60C0 26.8629 26.8629 0 60 0V40C37.9086 40 20 53.4315 20 70V887C20 903.569 37.9086 917 60 917V957ZM372 0C405.137 0 432 26.8629 432 60V897C432 930.137 405.137 957 372 957V917C394.091 917 412 903.569 412 887V70C412 53.4315 394.091 40 372 40V0Z" fill="#050505" mask="url(#path-1-outside-1_374_74)"/>
<g filter="url(#filter0_f_374_74)">
<ellipse cx="215.96" cy="39.6553" rx="12.3192" ry="12.6553" fill="black"/>
<path d="M227.772 39.6553C227.772 46.3777 222.471 51.8038 215.96 51.8038C209.449 51.8038 204.147 46.3777 204.147 39.6553C204.147 32.933 209.449 27.5069 215.96 27.5069C222.471 27.5069 227.772 32.933 227.772 39.6553Z" stroke="#313131" stroke-width="1.01373"/>
</g>
<path d="M106.241 12.9043L102 10.242L327.386 10L323.953 12.9043H106.241Z" fill="#292929"/>
<rect x="56" width="319.903" height="10.3725" fill="#292929"/>
<path d="M431.328 378.398C432.89 378.398 434.155 379.664 434.155 381.226V494.242C434.155 495.804 432.89 497.069 431.328 497.069V378.398Z" fill="#424242"/>
<path d="M431 272.176C432.561 272.176 433.827 273.442 433.827 275.003V327.854C433.827 329.415 432.561 330.681 431 330.681V272.176Z" fill="#424242"/>
<defs>
<filter id="filter0_f_374_74" x="202.627" y="25.9863" width="26.6681" height="27.338" filterUnits="userSpaceOnUse" color-interpolation-filters="sRGB">
<feFlood flood-opacity="0" result="BackgroundImageFix"/>
<feBlend mode="normal" in="SourceGraphic" in2="BackgroundImageFix" result="shape"/>
<feGaussianBlur stdDeviation="0.506864" result="effect1_foregroundBlur_374_74"/>
</filter>
</defs>
</svg>
