<svg width="1440" height="79" viewBox="0 0 1440 79" fill="none" xmlns="http://www.w3.org/2000/svg">
<path d="M0 10C0 4.47715 4.47715 0 10 0H1430C1435.52 0 1440 4.47715 1440 10V42H0V10Z" fill="#1F2224"/>
<rect x="21" y="16" width="12" height="12" rx="6" fill="#EC6B5E"/>
<rect x="41" y="16" width="12" height="12" rx="6" fill="#F4BF4F"/>
<rect x="61" y="16" width="12" height="12" rx="6" fill="#61C453"/>
<g clip-path="url(#clip0_402_174)">
<path d="M87 16C87 11.5817 90.5817 8 95 8H319C323.418 8 327 11.5817 327 16V42H87V16Z" fill="#35363B"/>
<path d="M104.471 23.5879V26.9102C104.346 27.0703 104.148 27.2441 103.879 27.4316C103.613 27.6191 103.266 27.7812 102.836 27.918C102.406 28.0508 101.879 28.1172 101.254 28.1172C100.711 28.1172 100.215 28.0273 99.7656 27.8477C99.3164 27.6641 98.9297 27.3965 98.6055 27.0449C98.2812 26.6934 98.0312 26.2637 97.8555 25.7559C97.6797 25.248 97.5918 24.668 97.5918 24.0156V23.4531C97.5918 22.8008 97.6738 22.2207 97.8379 21.7129C98.0059 21.2051 98.2441 20.7754 98.5527 20.4238C98.8652 20.0723 99.2383 19.8047 99.6719 19.6211C100.109 19.4375 100.598 19.3457 101.137 19.3457C101.859 19.3457 102.453 19.4648 102.918 19.7031C103.387 19.9414 103.746 20.2695 103.996 20.6875C104.246 21.1016 104.402 21.5781 104.465 22.1172H102.895C102.852 21.8203 102.766 21.5605 102.637 21.3379C102.508 21.1113 102.324 20.9355 102.086 20.8105C101.852 20.6816 101.547 20.6172 101.172 20.6172C100.855 20.6172 100.576 20.6797 100.334 20.8047C100.092 20.9297 99.8887 21.1113 99.7246 21.3496C99.5605 21.5879 99.4355 21.8828 99.3496 22.2344C99.2676 22.5859 99.2266 22.9883 99.2266 23.4414V24.0156C99.2266 24.4727 99.2734 24.8789 99.3672 25.2344C99.4609 25.5859 99.5957 25.8828 99.7715 26.125C99.9512 26.3633 100.172 26.5449 100.434 26.6699C100.699 26.791 101 26.8516 101.336 26.8516C101.641 26.8516 101.893 26.8262 102.092 26.7754C102.295 26.7207 102.457 26.6562 102.578 26.582C102.699 26.5078 102.793 26.4355 102.859 26.3652V24.7656H101.166V23.5879H104.471ZM105.482 24.8945V24.7715C105.482 24.3066 105.548 23.8789 105.681 23.4883C105.814 23.0938 106.007 22.752 106.261 22.4629C106.515 22.1738 106.825 21.9492 107.193 21.7891C107.56 21.625 107.978 21.543 108.446 21.543C108.923 21.543 109.345 21.625 109.712 21.7891C110.083 21.9492 110.396 22.1738 110.65 22.4629C110.903 22.752 111.097 23.0938 111.23 23.4883C111.362 23.8789 111.429 24.3066 111.429 24.7715V24.8945C111.429 25.3555 111.362 25.7832 111.23 26.1777C111.097 26.5684 110.903 26.9102 110.65 27.2031C110.396 27.4922 110.085 27.7168 109.718 27.877C109.351 28.0371 108.931 28.1172 108.458 28.1172C107.989 28.1172 107.569 28.0371 107.198 27.877C106.827 27.7168 106.515 27.4922 106.261 27.2031C106.007 26.9102 105.814 26.5684 105.681 26.1777C105.548 25.7832 105.482 25.3555 105.482 24.8945ZM107.028 24.7715V24.8945C107.028 25.1719 107.056 25.4316 107.11 25.6738C107.165 25.916 107.249 26.1289 107.362 26.3125C107.476 26.4961 107.622 26.6406 107.802 26.7461C107.985 26.8477 108.204 26.8984 108.458 26.8984C108.708 26.8984 108.923 26.8477 109.103 26.7461C109.282 26.6406 109.429 26.4961 109.542 26.3125C109.659 26.1289 109.745 25.916 109.8 25.6738C109.855 25.4316 109.882 25.1719 109.882 24.8945V24.7715C109.882 24.498 109.855 24.2422 109.8 24.0039C109.745 23.7617 109.659 23.5488 109.542 23.3652C109.429 23.1777 109.28 23.0312 109.097 22.9258C108.917 22.8164 108.7 22.7617 108.446 22.7617C108.196 22.7617 107.982 22.8164 107.802 22.9258C107.622 23.0312 107.476 23.1777 107.362 23.3652C107.249 23.5488 107.165 23.7617 107.11 24.0039C107.056 24.2422 107.028 24.498 107.028 24.7715ZM112.158 24.8945V24.7715C112.158 24.3066 112.225 23.8789 112.358 23.4883C112.49 23.0938 112.684 22.752 112.938 22.4629C113.192 22.1738 113.502 21.9492 113.869 21.7891C114.237 21.625 114.655 21.543 115.123 21.543C115.6 21.543 116.022 21.625 116.389 21.7891C116.76 21.9492 117.073 22.1738 117.326 22.4629C117.58 22.752 117.774 23.0938 117.906 23.4883C118.039 23.8789 118.106 24.3066 118.106 24.7715V24.8945C118.106 25.3555 118.039 25.7832 117.906 26.1777C117.774 26.5684 117.58 26.9102 117.326 27.2031C117.073 27.4922 116.762 27.7168 116.395 27.877C116.028 28.0371 115.608 28.1172 115.135 28.1172C114.666 28.1172 114.246 28.0371 113.875 27.877C113.504 27.7168 113.192 27.4922 112.938 27.2031C112.684 26.9102 112.49 26.5684 112.358 26.1777C112.225 25.7832 112.158 25.3555 112.158 24.8945ZM113.705 24.7715V24.8945C113.705 25.1719 113.733 25.4316 113.787 25.6738C113.842 25.916 113.926 26.1289 114.039 26.3125C114.153 26.4961 114.299 26.6406 114.479 26.7461C114.662 26.8477 114.881 26.8984 115.135 26.8984C115.385 26.8984 115.6 26.8477 115.78 26.7461C115.959 26.6406 116.106 26.4961 116.219 26.3125C116.336 26.1289 116.422 25.916 116.477 25.6738C116.531 25.4316 116.559 25.1719 116.559 24.8945V24.7715C116.559 24.498 116.531 24.2422 116.477 24.0039C116.422 23.7617 116.336 23.5488 116.219 23.3652C116.106 23.1777 115.957 23.0312 115.774 22.9258C115.594 22.8164 115.377 22.7617 115.123 22.7617C114.873 22.7617 114.658 22.8164 114.479 22.9258C114.299 23.0312 114.153 23.1777 114.039 23.3652C113.926 23.5488 113.842 23.7617 113.787 24.0039C113.733 24.2422 113.705 24.498 113.705 24.7715ZM123.142 21.6602H124.548V27.8066C124.548 28.3809 124.423 28.8672 124.173 29.2656C123.927 29.668 123.581 29.9727 123.136 30.1797C122.691 30.3906 122.173 30.4961 121.583 30.4961C121.329 30.4961 121.054 30.4609 120.757 30.3906C120.464 30.3203 120.181 30.209 119.908 30.0566C119.638 29.9082 119.413 29.7148 119.234 29.4766L119.931 28.5625C120.142 28.8086 120.38 28.9941 120.646 29.1191C120.911 29.248 121.199 29.3125 121.507 29.3125C121.82 29.3125 122.085 29.2539 122.304 29.1367C122.527 29.0234 122.697 28.8555 122.814 28.6328C122.935 28.4141 122.995 28.1445 122.995 27.8242V23.1074L123.142 21.6602ZM118.859 24.9062V24.7832C118.859 24.2988 118.917 23.8594 119.035 23.4648C119.152 23.0664 119.32 22.7246 119.538 22.4395C119.761 22.1543 120.029 21.9336 120.341 21.7773C120.658 21.6211 121.013 21.543 121.408 21.543C121.826 21.543 122.177 21.6191 122.462 21.7715C122.751 21.9238 122.99 22.1406 123.177 22.4219C123.369 22.7031 123.517 23.0371 123.622 23.4238C123.732 23.8066 123.816 24.2285 123.874 24.6895V25.0234C123.82 25.4727 123.732 25.8848 123.611 26.2598C123.494 26.6348 123.337 26.9629 123.142 27.2441C122.947 27.5215 122.704 27.7363 122.415 27.8887C122.126 28.041 121.786 28.1172 121.396 28.1172C121.005 28.1172 120.654 28.0371 120.341 27.877C120.029 27.7168 119.761 27.4922 119.538 27.2031C119.32 26.9141 119.152 26.5742 119.035 26.1836C118.917 25.793 118.859 25.3672 118.859 24.9062ZM120.406 24.7832V24.9062C120.406 25.1797 120.433 25.4355 120.488 25.6738C120.542 25.9121 120.626 26.123 120.74 26.3066C120.853 26.4863 120.995 26.627 121.167 26.7285C121.339 26.8301 121.544 26.8809 121.783 26.8809C122.103 26.8809 122.365 26.8145 122.568 26.6816C122.775 26.5449 122.931 26.3594 123.036 26.125C123.146 25.8867 123.216 25.6191 123.247 25.3223V24.4023C123.228 24.168 123.185 23.9512 123.119 23.752C123.056 23.5527 122.968 23.3809 122.855 23.2363C122.742 23.0918 122.597 22.9785 122.421 22.8965C122.245 22.8145 122.036 22.7734 121.794 22.7734C121.56 22.7734 121.355 22.8262 121.179 22.9316C121.003 23.0332 120.859 23.1758 120.745 23.3594C120.632 23.543 120.546 23.7559 120.488 23.998C120.433 24.2402 120.406 24.502 120.406 24.7832ZM127.463 19V28H125.911V19H127.463ZM131.668 28.1172C131.187 28.1172 130.755 28.0391 130.373 27.8828C129.99 27.7266 129.664 27.5098 129.394 27.2324C129.129 26.9512 128.923 26.625 128.779 26.2539C128.638 25.8789 128.568 25.4766 128.568 25.0469V24.8125C128.568 24.3242 128.638 23.8809 128.779 23.4824C128.92 23.0801 129.119 22.7344 129.377 22.4453C129.634 22.1562 129.943 21.9336 130.302 21.7773C130.662 21.6211 131.058 21.543 131.492 21.543C131.941 21.543 132.337 21.6191 132.681 21.7715C133.025 21.9199 133.312 22.1309 133.543 22.4043C133.773 22.6777 133.947 23.0059 134.064 23.3887C134.181 23.7676 134.24 24.1875 134.24 24.6484V25.2988H129.271V24.2324H132.716V24.1152C132.709 23.8691 132.662 23.6445 132.576 23.4414C132.49 23.2344 132.357 23.0703 132.177 22.9492C131.998 22.8242 131.765 22.7617 131.48 22.7617C131.25 22.7617 131.048 22.8125 130.877 22.9141C130.709 23.0117 130.568 23.1523 130.455 23.3359C130.345 23.5156 130.263 23.7305 130.209 23.9805C130.154 24.2305 130.127 24.5078 130.127 24.8125V25.0469C130.127 25.3125 130.162 25.5586 130.232 25.7852C130.306 26.0117 130.414 26.209 130.554 26.377C130.699 26.541 130.871 26.6699 131.07 26.7637C131.273 26.8535 131.504 26.8984 131.761 26.8984C132.086 26.8984 132.379 26.8359 132.64 26.7109C132.906 26.582 133.136 26.3926 133.332 26.1426L134.111 26.9512C133.978 27.1465 133.798 27.334 133.572 27.5137C133.349 27.6934 133.08 27.8398 132.763 27.9531C132.447 28.0625 132.082 28.1172 131.668 28.1172Z" fill="white"/>
</g>
<path d="M355 20V25M355 30V25M355 25H350M355 25H360" stroke="#BEC1C5" stroke-width="1.5" stroke-linecap="round" stroke-linejoin="round"/>
<path d="M1414 23L1418 27L1422 23" stroke="#BEC1C5" stroke-width="1.5" stroke-linecap="round" stroke-linejoin="round"/>
<rect width="1440" height="36" transform="translate(0 42)" fill="#35363A"/>
<path d="M28 60H16M16 60L22 54M16 60L22 66" stroke="#F1F3F4" stroke-width="1.5" stroke-linecap="round" stroke-linejoin="round"/>
<path d="M48 60H60M60 60L54 54M60 60L54 66" stroke="#F1F3F4" stroke-width="1.5" stroke-linecap="round" stroke-linejoin="round"/>
<path fill-rule="evenodd" clip-rule="evenodd" d="M81.25 60C81.25 57.3766 83.3766 55.25 86 55.25C87.5659 55.25 88.9559 56.0078 89.8216 57.1783L88 59H93V54L90.8911 56.1089C89.7465 54.672 87.9814 53.75 86 53.75C82.5482 53.75 79.75 56.5482 79.75 60C79.75 63.4518 82.5482 66.25 86 66.25C88.4299 66.25 90.5345 64.8632 91.5681 62.8414C91.7566 62.4726 91.6105 62.0207 91.2417 61.8322C90.8729 61.6437 90.421 61.7898 90.2325 62.1586C89.4453 63.6985 87.8448 64.75 86 64.75C83.3766 64.75 81.25 62.6234 81.25 60Z" fill="#F1F3F4"/>
<rect x="108" y="46" width="1224" height="28" rx="14" fill="#202124"/>
<path fill-rule="evenodd" clip-rule="evenodd" d="M126 55C124.619 55 123.5 56.1193 123.5 57.5V58.5H123C122.448 58.5 122 58.9477 122 59.5V64.5C122 65.0523 122.448 65.5 123 65.5H129C129.552 65.5 130 65.0523 130 64.5V59.5C130 58.9477 129.552 58.5 129 58.5H128.5V57.5C128.5 56.1193 127.381 55 126 55ZM127.5 58.5V57.5C127.5 56.6716 126.828 56 126 56C125.172 56 124.5 56.6716 124.5 57.5V58.5H127.5Z" fill="#9BA0A5"/>
<path fill-rule="evenodd" clip-rule="evenodd" d="M1282.44 53.5581C1282.2 53.314 1281.8 53.314 1281.56 53.5581L1279.56 55.5581C1279.31 55.8021 1279.31 56.1979 1279.56 56.4419C1279.8 56.686 1280.2 56.686 1280.44 56.4419L1281.38 55.5089V62C1281.38 62.3452 1281.65 62.625 1282 62.625C1282.35 62.625 1282.62 62.3452 1282.62 62V55.5089L1283.56 56.4419C1283.8 56.686 1284.2 56.686 1284.44 56.4419C1284.69 56.1979 1284.69 55.8021 1284.44 55.5581L1282.44 53.5581ZM1277.62 59.5C1277.62 59.0168 1278.02 58.625 1278.5 58.625H1279.5C1279.85 58.625 1280.12 58.3452 1280.12 58C1280.12 57.6548 1279.85 57.375 1279.5 57.375H1278.5C1277.33 57.375 1276.38 58.3264 1276.38 59.5V65.5C1276.38 66.6736 1277.33 67.625 1278.5 67.625H1285.5C1286.67 67.625 1287.62 66.6736 1287.62 65.5V59.5C1287.62 58.3264 1286.67 57.375 1285.5 57.375H1284.5C1284.15 57.375 1283.88 57.6548 1283.88 58C1283.88 58.3452 1284.15 58.625 1284.5 58.625H1285.5C1285.98 58.625 1286.38 59.0168 1286.38 59.5V65.5C1286.38 65.9832 1285.98 66.375 1285.5 66.375H1278.5C1278.02 66.375 1277.62 65.9832 1277.62 65.5V59.5Z" fill="#BDBDBE"/>
<path fill-rule="evenodd" clip-rule="evenodd" d="M1313.38 53.8788C1313.57 53.28 1314.42 53.28 1314.62 53.8788L1315.91 57.8652H1320.1C1320.73 57.8652 1320.99 58.6709 1320.49 59.041L1317.09 61.5047L1318.39 65.4911C1318.58 66.0899 1317.9 66.5879 1317.39 66.2178L1314 63.7541L1310.61 66.2178C1310.1 66.5879 1309.41 66.0899 1309.61 65.4911L1310.9 61.5047L1307.51 59.041C1307 58.6709 1307.26 57.8652 1307.89 57.8652H1312.08L1313.38 53.8788ZM1314 56.0213L1313.14 58.666C1313.05 58.9339 1312.8 59.1152 1312.52 59.1152H1309.74L1311.99 60.7497C1312.22 60.9152 1312.31 61.2086 1312.23 61.4764L1311.37 64.1211L1313.62 62.4866C1313.84 62.3211 1314.15 62.3211 1314.38 62.4866L1316.63 64.1211L1315.77 61.4764C1315.68 61.2086 1315.78 60.9152 1316.01 60.7497L1318.26 59.1152H1315.48C1315.19 59.1152 1314.94 58.9338 1314.86 58.666L1314 56.0213Z" fill="#BDBDBE"/>
<path d="M150.511 60.0439V63.6875C150.388 63.8698 150.192 64.0749 149.923 64.3027C149.654 64.526 149.283 64.722 148.809 64.8906C148.339 65.0547 147.733 65.1367 146.99 65.1367C146.384 65.1367 145.826 65.0319 145.315 64.8223C144.81 64.6081 144.37 64.2982 143.996 63.8926C143.627 63.4824 143.34 62.9857 143.135 62.4023C142.934 61.8145 142.834 61.1491 142.834 60.4062V59.6338C142.834 58.891 142.921 58.2279 143.094 57.6445C143.271 57.0612 143.531 56.5667 143.873 56.1611C144.215 55.751 144.634 55.4411 145.131 55.2314C145.628 55.0173 146.197 54.9102 146.84 54.9102C147.601 54.9102 148.237 55.0423 148.747 55.3066C149.262 55.5664 149.663 55.9264 149.95 56.3867C150.242 56.847 150.429 57.3711 150.511 57.959H149.191C149.132 57.599 149.014 57.2708 148.836 56.9746C148.663 56.6784 148.414 56.4414 148.091 56.2637C147.767 56.0814 147.35 55.9902 146.84 55.9902C146.38 55.9902 145.981 56.0745 145.644 56.2432C145.306 56.4118 145.028 56.6533 144.81 56.9678C144.591 57.2822 144.427 57.6628 144.317 58.1094C144.213 58.556 144.16 59.0596 144.16 59.6201V60.4062C144.16 60.9805 144.226 61.4932 144.358 61.9443C144.495 62.3955 144.689 62.7806 144.939 63.0996C145.19 63.4141 145.489 63.6533 145.835 63.8174C146.186 63.9814 146.573 64.0635 146.997 64.0635C147.466 64.0635 147.847 64.0247 148.139 63.9473C148.43 63.8652 148.658 63.7695 148.822 63.6602C148.986 63.5462 149.112 63.4391 149.198 63.3389V61.1104H146.895V60.0439H150.511ZM152.172 61.3838V61.2266C152.172 60.6934 152.249 60.1989 152.404 59.7432C152.559 59.2829 152.783 58.8841 153.074 58.5469C153.366 58.2051 153.719 57.9408 154.134 57.7539C154.549 57.5625 155.013 57.4668 155.528 57.4668C156.048 57.4668 156.515 57.5625 156.93 57.7539C157.349 57.9408 157.704 58.2051 157.996 58.5469C158.292 58.8841 158.518 59.2829 158.673 59.7432C158.828 60.1989 158.905 60.6934 158.905 61.2266V61.3838C158.905 61.917 158.828 62.4115 158.673 62.8672C158.518 63.3229 158.292 63.7217 157.996 64.0635C157.704 64.4007 157.351 64.665 156.937 64.8564C156.526 65.0433 156.062 65.1367 155.542 65.1367C155.022 65.1367 154.555 65.0433 154.141 64.8564C153.726 64.665 153.37 64.4007 153.074 64.0635C152.783 63.7217 152.559 63.3229 152.404 62.8672C152.249 62.4115 152.172 61.917 152.172 61.3838ZM153.437 61.2266V61.3838C153.437 61.7529 153.48 62.1016 153.566 62.4297C153.653 62.7533 153.783 63.0404 153.956 63.291C154.134 63.5417 154.355 63.7399 154.619 63.8857C154.883 64.027 155.191 64.0977 155.542 64.0977C155.888 64.0977 156.191 64.027 156.451 63.8857C156.715 63.7399 156.934 63.5417 157.107 63.291C157.281 63.0404 157.41 62.7533 157.497 62.4297C157.588 62.1016 157.634 61.7529 157.634 61.3838V61.2266C157.634 60.862 157.588 60.5179 157.497 60.1943C157.41 59.8662 157.278 59.5768 157.101 59.3262C156.927 59.071 156.709 58.8704 156.444 58.7246C156.185 58.5788 155.879 58.5059 155.528 58.5059C155.182 58.5059 154.877 58.5788 154.612 58.7246C154.353 58.8704 154.134 59.071 153.956 59.3262C153.783 59.5768 153.653 59.8662 153.566 60.1943C153.48 60.5179 153.437 60.862 153.437 61.2266ZM160.156 61.3838V61.2266C160.156 60.6934 160.234 60.1989 160.389 59.7432C160.544 59.2829 160.767 58.8841 161.059 58.5469C161.35 58.2051 161.703 57.9408 162.118 57.7539C162.533 57.5625 162.998 57.4668 163.513 57.4668C164.032 57.4668 164.499 57.5625 164.914 57.7539C165.333 57.9408 165.689 58.2051 165.98 58.5469C166.277 58.8841 166.502 59.2829 166.657 59.7432C166.812 60.1989 166.89 60.6934 166.89 61.2266V61.3838C166.89 61.917 166.812 62.4115 166.657 62.8672C166.502 63.3229 166.277 63.7217 165.98 64.0635C165.689 64.4007 165.336 64.665 164.921 64.8564C164.511 65.0433 164.046 65.1367 163.526 65.1367C163.007 65.1367 162.54 65.0433 162.125 64.8564C161.71 64.665 161.355 64.4007 161.059 64.0635C160.767 63.7217 160.544 63.3229 160.389 62.8672C160.234 62.4115 160.156 61.917 160.156 61.3838ZM161.421 61.2266V61.3838C161.421 61.7529 161.464 62.1016 161.551 62.4297C161.637 62.7533 161.767 63.0404 161.94 63.291C162.118 63.5417 162.339 63.7399 162.604 63.8857C162.868 64.027 163.175 64.0977 163.526 64.0977C163.873 64.0977 164.176 64.027 164.436 63.8857C164.7 63.7399 164.919 63.5417 165.092 63.291C165.265 63.0404 165.395 62.7533 165.481 62.4297C165.573 62.1016 165.618 61.7529 165.618 61.3838V61.2266C165.618 60.862 165.573 60.5179 165.481 60.1943C165.395 59.8662 165.263 59.5768 165.085 59.3262C164.912 59.071 164.693 58.8704 164.429 58.7246C164.169 58.5788 163.864 58.5059 163.513 58.5059C163.166 58.5059 162.861 58.5788 162.597 58.7246C162.337 58.8704 162.118 59.071 161.94 59.3262C161.767 59.5768 161.637 59.8662 161.551 60.1943C161.464 60.5179 161.421 60.862 161.421 61.2266ZM173.268 57.6035H174.416V64.8428C174.416 65.4945 174.284 66.0505 174.02 66.5107C173.755 66.971 173.386 67.3197 172.912 67.5566C172.443 67.7982 171.9 67.9189 171.285 67.9189C171.03 67.9189 170.729 67.8779 170.383 67.7959C170.041 67.7184 169.704 67.584 169.371 67.3926C169.043 67.2057 168.767 66.9528 168.544 66.6338L169.207 65.8818C169.517 66.2555 169.84 66.5153 170.178 66.6611C170.52 66.807 170.857 66.8799 171.189 66.8799C171.59 66.8799 171.937 66.8047 172.229 66.6543C172.52 66.5039 172.746 66.2806 172.905 65.9844C173.069 65.6927 173.151 65.3327 173.151 64.9043V59.2305L173.268 57.6035ZM168.175 61.3838V61.2402C168.175 60.6751 168.241 60.1624 168.373 59.7021C168.51 59.2373 168.703 58.8385 168.954 58.5059C169.209 58.1732 169.517 57.918 169.877 57.7402C170.237 57.5579 170.643 57.4668 171.094 57.4668C171.559 57.4668 171.964 57.5488 172.311 57.7129C172.661 57.8724 172.958 58.1071 173.199 58.417C173.445 58.7223 173.639 59.0915 173.78 59.5244C173.922 59.9574 174.02 60.4473 174.074 60.9941V61.623C174.024 62.1654 173.926 62.653 173.78 63.0859C173.639 63.5189 173.445 63.888 173.199 64.1934C172.958 64.4987 172.661 64.7334 172.311 64.8975C171.96 65.057 171.549 65.1367 171.08 65.1367C170.638 65.1367 170.237 65.0433 169.877 64.8564C169.521 64.6696 169.216 64.4076 168.961 64.0703C168.706 63.7331 168.51 63.3366 168.373 62.8809C168.241 62.4206 168.175 61.9215 168.175 61.3838ZM169.439 61.2402V61.3838C169.439 61.7529 169.476 62.0993 169.549 62.4229C169.626 62.7464 169.743 63.0312 169.897 63.2773C170.057 63.5234 170.26 63.7171 170.506 63.8584C170.752 63.9951 171.046 64.0635 171.388 64.0635C171.807 64.0635 172.153 63.9746 172.427 63.7969C172.7 63.6191 172.917 63.3844 173.076 63.0928C173.24 62.8011 173.368 62.4844 173.459 62.1426V60.4951C173.409 60.2445 173.331 60.0029 173.227 59.7705C173.126 59.5335 172.994 59.3239 172.83 59.1416C172.671 58.9548 172.472 58.8066 172.235 58.6973C171.998 58.5879 171.72 58.5332 171.401 58.5332C171.055 58.5332 170.757 58.6061 170.506 58.752C170.26 58.8932 170.057 59.0892 169.897 59.3398C169.743 59.5859 169.626 59.873 169.549 60.2012C169.476 60.5247 169.439 60.8711 169.439 61.2402ZM177.711 54.5V65H176.439V54.5H177.711ZM182.811 65.1367C182.296 65.1367 181.828 65.0501 181.409 64.877C180.994 64.6992 180.637 64.4508 180.336 64.1318C180.04 63.8128 179.812 63.4346 179.652 62.9971C179.493 62.5596 179.413 62.0811 179.413 61.5615V61.2744C179.413 60.6729 179.502 60.1374 179.68 59.668C179.857 59.194 180.099 58.793 180.404 58.4648C180.71 58.1367 181.056 57.8883 181.443 57.7197C181.831 57.5511 182.232 57.4668 182.646 57.4668C183.175 57.4668 183.631 57.5579 184.014 57.7402C184.401 57.9225 184.718 58.1777 184.964 58.5059C185.21 58.8294 185.392 59.2122 185.511 59.6543C185.629 60.0918 185.688 60.5703 185.688 61.0898V61.6572H180.165V60.625H184.424V60.5293C184.406 60.2012 184.337 59.8822 184.219 59.5723C184.105 59.2624 183.923 59.0072 183.672 58.8066C183.421 58.6061 183.079 58.5059 182.646 58.5059C182.359 58.5059 182.095 58.5674 181.854 58.6904C181.612 58.8089 181.405 58.9867 181.231 59.2236C181.058 59.4606 180.924 59.75 180.828 60.0918C180.732 60.4336 180.685 60.8278 180.685 61.2744V61.5615C180.685 61.9124 180.732 62.2428 180.828 62.5527C180.928 62.8581 181.072 63.127 181.259 63.3594C181.45 63.5918 181.68 63.7741 181.949 63.9062C182.223 64.0384 182.533 64.1045 182.879 64.1045C183.326 64.1045 183.704 64.0133 184.014 63.8311C184.324 63.6488 184.595 63.4049 184.827 63.0996L185.593 63.708C185.433 63.9495 185.23 64.1797 184.984 64.3984C184.738 64.6172 184.435 64.7949 184.075 64.9316C183.72 65.0684 183.298 65.1367 182.811 65.1367ZM187.186 64.3301C187.186 64.1159 187.252 63.9359 187.384 63.79C187.521 63.6396 187.716 63.5645 187.972 63.5645C188.227 63.5645 188.421 63.6396 188.553 63.79C188.689 63.9359 188.758 64.1159 188.758 64.3301C188.758 64.5397 188.689 64.7174 188.553 64.8633C188.421 65.0091 188.227 65.082 187.972 65.082C187.716 65.082 187.521 65.0091 187.384 64.8633C187.252 64.7174 187.186 64.5397 187.186 64.3301ZM193.816 64.0977C194.117 64.0977 194.395 64.0361 194.65 63.9131C194.906 63.79 195.115 63.6214 195.279 63.4072C195.443 63.1885 195.537 62.9401 195.56 62.6621H196.763C196.74 63.0996 196.592 63.5075 196.318 63.8857C196.049 64.2594 195.696 64.5625 195.259 64.7949C194.821 65.0228 194.34 65.1367 193.816 65.1367C193.26 65.1367 192.775 65.0387 192.36 64.8428C191.95 64.6468 191.608 64.3779 191.335 64.0361C191.066 63.6943 190.863 63.3024 190.727 62.8604C190.594 62.4137 190.528 61.9421 190.528 61.4453V61.1582C190.528 60.6615 190.594 60.1921 190.727 59.75C190.863 59.3034 191.066 58.9092 191.335 58.5674C191.608 58.2256 191.95 57.9567 192.36 57.7607C192.775 57.5648 193.26 57.4668 193.816 57.4668C194.395 57.4668 194.901 57.5853 195.334 57.8223C195.767 58.0547 196.106 58.3737 196.353 58.7793C196.603 59.1803 196.74 59.6361 196.763 60.1465H195.56C195.537 59.8411 195.45 59.5654 195.3 59.3193C195.154 59.0732 194.953 58.8773 194.698 58.7314C194.448 58.5811 194.154 58.5059 193.816 58.5059C193.429 58.5059 193.103 58.5833 192.839 58.7383C192.579 58.8887 192.372 59.0938 192.217 59.3535C192.066 59.6087 191.957 59.8936 191.889 60.208C191.825 60.5179 191.793 60.8346 191.793 61.1582V61.4453C191.793 61.7689 191.825 62.0879 191.889 62.4023C191.952 62.7168 192.06 63.0016 192.21 63.2568C192.365 63.512 192.572 63.7171 192.832 63.8721C193.096 64.0225 193.424 64.0977 193.816 64.0977ZM197.85 61.3838V61.2266C197.85 60.6934 197.927 60.1989 198.082 59.7432C198.237 59.2829 198.46 58.8841 198.752 58.5469C199.044 58.2051 199.397 57.9408 199.812 57.7539C200.226 57.5625 200.691 57.4668 201.206 57.4668C201.726 57.4668 202.193 57.5625 202.607 57.7539C203.027 57.9408 203.382 58.2051 203.674 58.5469C203.97 58.8841 204.196 59.2829 204.351 59.7432C204.506 60.1989 204.583 60.6934 204.583 61.2266V61.3838C204.583 61.917 204.506 62.4115 204.351 62.8672C204.196 63.3229 203.97 63.7217 203.674 64.0635C203.382 64.4007 203.029 64.665 202.614 64.8564C202.204 65.0433 201.739 65.1367 201.22 65.1367C200.7 65.1367 200.233 65.0433 199.818 64.8564C199.404 64.665 199.048 64.4007 198.752 64.0635C198.46 63.7217 198.237 63.3229 198.082 62.8672C197.927 62.4115 197.85 61.917 197.85 61.3838ZM199.114 61.2266V61.3838C199.114 61.7529 199.158 62.1016 199.244 62.4297C199.331 62.7533 199.461 63.0404 199.634 63.291C199.812 63.5417 200.033 63.7399 200.297 63.8857C200.561 64.027 200.869 64.0977 201.22 64.0977C201.566 64.0977 201.869 64.027 202.129 63.8857C202.393 63.7399 202.612 63.5417 202.785 63.291C202.958 63.0404 203.088 62.7533 203.175 62.4297C203.266 62.1016 203.312 61.7529 203.312 61.3838V61.2266C203.312 60.862 203.266 60.5179 203.175 60.1943C203.088 59.8662 202.956 59.5768 202.778 59.3262C202.605 59.071 202.386 58.8704 202.122 58.7246C201.862 58.5788 201.557 58.5059 201.206 58.5059C200.86 58.5059 200.554 58.5788 200.29 58.7246C200.03 58.8704 199.812 59.071 199.634 59.3262C199.461 59.5768 199.331 59.8662 199.244 60.1943C199.158 60.5179 199.114 60.862 199.114 61.2266ZM207.427 59.0732V65H206.155V57.6035H207.358L207.427 59.0732ZM207.167 61.0215L206.579 61.001C206.584 60.4951 206.65 60.028 206.777 59.5996C206.905 59.1667 207.094 58.7907 207.345 58.4717C207.595 58.1527 207.908 57.9066 208.281 57.7334C208.655 57.5557 209.088 57.4668 209.58 57.4668C209.926 57.4668 210.245 57.5169 210.537 57.6172C210.829 57.7129 211.082 57.8656 211.296 58.0752C211.51 58.2848 211.676 58.5537 211.795 58.8818C211.913 59.21 211.973 59.6064 211.973 60.0713V65H210.708V60.1328C210.708 59.7454 210.642 59.4355 210.51 59.2031C210.382 58.9707 210.2 58.8021 209.963 58.6973C209.726 58.5879 209.448 58.5332 209.129 58.5332C208.755 58.5332 208.443 58.5993 208.192 58.7314C207.942 58.8636 207.741 59.0459 207.591 59.2783C207.44 59.5107 207.331 59.7773 207.263 60.0781C207.199 60.3743 207.167 60.6888 207.167 61.0215ZM211.959 60.3242L211.111 60.584C211.116 60.1784 211.182 59.7887 211.31 59.415C211.442 59.0413 211.631 58.7087 211.877 58.417C212.128 58.1253 212.435 57.8952 212.8 57.7266C213.164 57.5534 213.581 57.4668 214.051 57.4668C214.447 57.4668 214.798 57.5192 215.104 57.624C215.413 57.7288 215.673 57.8906 215.883 58.1094C216.097 58.3236 216.259 58.5993 216.368 58.9365C216.478 59.2738 216.532 59.6748 216.532 60.1396V65H215.261V60.126C215.261 59.7113 215.195 59.39 215.062 59.1621C214.935 58.9297 214.753 58.7679 214.516 58.6768C214.283 58.5811 214.005 58.5332 213.682 58.5332C213.404 58.5332 213.158 58.5811 212.943 58.6768C212.729 58.7725 212.549 58.9046 212.403 59.0732C212.257 59.2373 212.146 59.4264 212.068 59.6406C211.995 59.8548 211.959 60.0827 211.959 60.3242Z" fill="white"/>
<path fill-rule="evenodd" clip-rule="evenodd" d="M1356.5 55H1359C1360.1 55 1361 55.8954 1361 57V59.5H1362.5C1363.33 59.5 1364 60.1716 1364 61C1364 61.8284 1363.33 62.5 1362.5 62.5H1361V65C1361 66.1046 1360.1 67 1359 67H1356.5V65.5C1356.5 64.6716 1355.83 64 1355 64C1354.17 64 1353.5 64.6716 1353.5 65.5V67H1351C1349.9 67 1349 66.1046 1349 65V62.5H1350.5C1351.33 62.5 1352 61.8284 1352 61C1352 60.1716 1351.33 59.5 1350.5 59.5H1349V57C1349 55.8954 1349.9 55 1351 55H1353.5V54C1353.5 53.1716 1354.17 52.5 1355 52.5C1355.83 52.5 1356.5 53.1716 1356.5 54V55Z" fill="#C4C4C4"/>
<path fill-rule="evenodd" clip-rule="evenodd" d="M1395 53H1381V67H1395V53ZM1390 55H1383V65H1390V55Z" fill="#C4C4C4"/>
<path fill-rule="evenodd" clip-rule="evenodd" d="M1420 55C1420 55.8284 1419.33 56.5 1418.5 56.5C1417.67 56.5 1417 55.8284 1417 55C1417 54.1716 1417.67 53.5 1418.5 53.5C1419.33 53.5 1420 54.1716 1420 55ZM1420 60.25C1420 61.0784 1419.33 61.75 1418.5 61.75C1417.67 61.75 1417 61.0784 1417 60.25C1417 59.4216 1417.67 58.75 1418.5 58.75C1419.33 58.75 1420 59.4216 1420 60.25ZM1418.5 67C1419.33 67 1420 66.3284 1420 65.5C1420 64.6716 1419.33 64 1418.5 64C1417.67 64 1417 64.6716 1417 65.5C1417 66.3284 1417.67 67 1418.5 67Z" fill="#C4C4C4"/>
<rect width="1440" height="1" transform="translate(0 78)" fill="#606164"/>
<defs>
<clipPath id="clip0_402_174">
<path d="M87 16C87 11.5817 90.5817 8 95 8H319C323.418 8 327 11.5817 327 16V42H87V16Z" fill="white"/>
</clipPath>
</defs>
</svg>
