<svg width="1440" height="52" viewBox="0 0 1440 52" fill="none" xmlns="http://www.w3.org/2000/svg">
<g filter="url(#filter0_b_402_182)">
<path d="M0 10C0 4.47715 4.47715 0 10 0H1430C1435.52 0 1440 4.47715 1440 10V52H0V10Z" fill="white" fill-opacity="0.8"/>
<rect x="20" y="20" width="12" height="12" rx="6" fill="#EC6B5E"/>
<rect x="40" y="20" width="12" height="12" rx="6" fill="#F4BF4F"/>
<rect x="60" y="20" width="12" height="12" rx="6" fill="#61C453"/>
<path d="M101.242 32.5625H114.758C116.398 32.5625 117.211 31.75 117.211 30.1406V20.6016C117.211 18.9922 116.398 18.1797 114.758 18.1797H101.242C99.6094 18.1797 98.7891 18.9844 98.7891 20.6016V30.1406C98.7891 31.7578 99.6094 32.5625 101.242 32.5625ZM101.258 31.3047C100.477 31.3047 100.047 30.8906 100.047 30.0781V20.6641C100.047 19.8516 100.477 19.4375 101.258 19.4375H104.742V31.3047H101.258ZM114.742 19.4375C115.516 19.4375 115.953 19.8516 115.953 20.6641V30.0781C115.953 30.8906 115.516 31.3047 114.742 31.3047H105.969V19.4375H114.742ZM103.242 22.3359C103.477 22.3359 103.688 22.125 103.688 21.8984C103.688 21.6641 103.477 21.4609 103.242 21.4609H101.562C101.328 21.4609 101.125 21.6641 101.125 21.8984C101.125 22.125 101.328 22.3359 101.562 22.3359H103.242ZM103.242 24.3594C103.477 24.3594 103.688 24.1484 103.688 23.9141C103.688 23.6797 103.477 23.4844 103.242 23.4844H101.562C101.328 23.4844 101.125 23.6797 101.125 23.9141C101.125 24.1484 101.328 24.3594 101.562 24.3594H103.242ZM103.242 26.375C103.477 26.375 103.688 26.1797 103.688 25.9453C103.688 25.7109 103.477 25.5078 103.242 25.5078H101.562C101.328 25.5078 101.125 25.7109 101.125 25.9453C101.125 26.1797 101.328 26.375 101.562 26.375H103.242Z" fill="black" fill-opacity="0.6"/>
<rect x="124" y="17" width="1" height="18" fill="black" fill-opacity="0.1"/>
<path d="M131 25L134 28L137 25" stroke="black" stroke-opacity="0.6" stroke-width="1.25" stroke-linecap="round" stroke-linejoin="round"/>
<path d="M163.625 25.3594C163.625 25.5547 163.695 25.7266 163.844 25.875L170.039 31.9297C170.172 32.0703 170.344 32.1406 170.547 32.1406C170.953 32.1406 171.266 31.8359 171.266 31.4297C171.266 31.2266 171.18 31.0547 171.055 30.9219L165.367 25.3594L171.055 19.7969C171.18 19.6641 171.266 19.4844 171.266 19.2891C171.266 18.8828 170.953 18.5781 170.547 18.5781C170.344 18.5781 170.172 18.6484 170.039 18.7812L163.844 24.8438C163.695 24.9844 163.625 25.1641 163.625 25.3594Z" fill="black" fill-opacity="0.6"/>
<path d="M207.25 25.3594C207.25 25.5547 207.18 25.7266 207.031 25.875L200.836 31.9297C200.703 32.0703 200.531 32.1406 200.328 32.1406C199.922 32.1406 199.609 31.8359 199.609 31.4297C199.609 31.2266 199.695 31.0547 199.82 30.9219L205.508 25.3594L199.82 19.7969C199.695 19.6641 199.609 19.4844 199.609 19.2891C199.609 18.8828 199.922 18.5781 200.328 18.5781C200.531 18.5781 200.703 18.6484 200.836 18.7812L207.031 24.8438C207.18 24.9844 207.25 25.1641 207.25 25.3594Z" fill="black" fill-opacity="0.2"/>
<path d="M399.508 27.9062C399.508 30.7578 401.039 31.8047 405.477 34.3047C405.68 34.4141 405.875 34.4609 406 34.4609C406.125 34.4609 406.328 34.4141 406.523 34.3047C410.969 31.8125 412.492 30.7578 412.492 27.9062V21.9297C412.492 21.1094 412.141 20.8516 411.477 20.5703C410.555 20.1875 407.578 19.1172 406.656 18.7969C406.445 18.7266 406.219 18.6797 406 18.6797C405.781 18.6797 405.555 18.7422 405.352 18.7969C404.43 19.0625 401.445 20.1953 400.523 20.5703C399.867 20.8438 399.508 21.1094 399.508 21.9297V27.9062ZM406.164 33.0156V19.9609C406.203 19.9688 406.25 19.9844 406.312 20.0078C407.492 20.4766 409.781 21.3047 410.992 21.7188C411.203 21.7969 411.25 21.9062 411.25 22.1719V27.6172C411.25 30.0312 410.094 30.6641 406.484 32.8594C406.367 32.9375 406.258 32.9922 406.164 33.0156Z" fill="black" fill-opacity="0.6"/>
<rect x="428.75" y="12.5" width="581" height="27" rx="7.5" stroke="black" stroke-opacity="0.25"/>
<path d="M575.211 32.2168H580.789C581.545 32.2168 581.914 31.8418 581.914 31.0215V26.7207C581.914 25.9824 581.609 25.6016 580.982 25.5371V24.0605C580.982 21.8516 579.535 20.7852 578 20.7852C576.465 20.7852 575.018 21.8516 575.018 24.0605V25.5664C574.443 25.6543 574.086 26.0293 574.086 26.7207V31.0215C574.086 31.8418 574.455 32.2168 575.211 32.2168ZM575.961 23.9375C575.961 22.4668 576.904 21.6875 578 21.6875C579.096 21.6875 580.039 22.4668 580.039 23.9375V25.5312L575.961 25.5371V23.9375Z" fill="black" fill-opacity="0.4"/>
<path d="M598.425 26.5439V30.1875C598.302 30.3698 598.106 30.5749 597.837 30.8027C597.568 31.026 597.197 31.222 596.723 31.3906C596.253 31.5547 595.647 31.6367 594.904 31.6367C594.298 31.6367 593.74 31.5319 593.229 31.3223C592.724 31.1081 592.284 30.7982 591.91 30.3926C591.541 29.9824 591.254 29.4857 591.049 28.9023C590.848 28.3145 590.748 27.6491 590.748 26.9062V26.1338C590.748 25.391 590.835 24.7279 591.008 24.1445C591.186 23.5612 591.445 23.0667 591.787 22.6611C592.129 22.251 592.548 21.9411 593.045 21.7314C593.542 21.5173 594.111 21.4102 594.754 21.4102C595.515 21.4102 596.151 21.5423 596.661 21.8066C597.176 22.0664 597.577 22.4264 597.864 22.8867C598.156 23.347 598.343 23.8711 598.425 24.459H597.105C597.046 24.099 596.928 23.7708 596.75 23.4746C596.577 23.1784 596.328 22.9414 596.005 22.7637C595.681 22.5814 595.264 22.4902 594.754 22.4902C594.294 22.4902 593.895 22.5745 593.558 22.7432C593.22 22.9118 592.942 23.1533 592.724 23.4678C592.505 23.7822 592.341 24.1628 592.231 24.6094C592.127 25.056 592.074 25.5596 592.074 26.1201V26.9062C592.074 27.4805 592.14 27.9932 592.272 28.4443C592.409 28.8955 592.603 29.2806 592.854 29.5996C593.104 29.9141 593.403 30.1533 593.749 30.3174C594.1 30.4814 594.487 30.5635 594.911 30.5635C595.381 30.5635 595.761 30.5247 596.053 30.4473C596.344 30.3652 596.572 30.2695 596.736 30.1602C596.9 30.0462 597.026 29.9391 597.112 29.8389V27.6104H594.809V26.5439H598.425ZM600.086 27.8838V27.7266C600.086 27.1934 600.163 26.6989 600.318 26.2432C600.473 25.7829 600.697 25.3841 600.988 25.0469C601.28 24.7051 601.633 24.4408 602.048 24.2539C602.463 24.0625 602.927 23.9668 603.442 23.9668C603.962 23.9668 604.429 24.0625 604.844 24.2539C605.263 24.4408 605.618 24.7051 605.91 25.0469C606.206 25.3841 606.432 25.7829 606.587 26.2432C606.742 26.6989 606.819 27.1934 606.819 27.7266V27.8838C606.819 28.417 606.742 28.9115 606.587 29.3672C606.432 29.8229 606.206 30.2217 605.91 30.5635C605.618 30.9007 605.265 31.165 604.851 31.3564C604.44 31.5433 603.976 31.6367 603.456 31.6367C602.937 31.6367 602.469 31.5433 602.055 31.3564C601.64 31.165 601.285 30.9007 600.988 30.5635C600.697 30.2217 600.473 29.8229 600.318 29.3672C600.163 28.9115 600.086 28.417 600.086 27.8838ZM601.351 27.7266V27.8838C601.351 28.2529 601.394 28.6016 601.48 28.9297C601.567 29.2533 601.697 29.5404 601.87 29.791C602.048 30.0417 602.269 30.2399 602.533 30.3857C602.798 30.527 603.105 30.5977 603.456 30.5977C603.802 30.5977 604.105 30.527 604.365 30.3857C604.63 30.2399 604.848 30.0417 605.021 29.791C605.195 29.5404 605.325 29.2533 605.411 28.9297C605.502 28.6016 605.548 28.2529 605.548 27.8838V27.7266C605.548 27.362 605.502 27.0179 605.411 26.6943C605.325 26.3662 605.192 26.0768 605.015 25.8262C604.841 25.571 604.623 25.3704 604.358 25.2246C604.099 25.0788 603.793 25.0059 603.442 25.0059C603.096 25.0059 602.791 25.0788 602.526 25.2246C602.267 25.3704 602.048 25.571 601.87 25.8262C601.697 26.0768 601.567 26.3662 601.48 26.6943C601.394 27.0179 601.351 27.362 601.351 27.7266ZM608.07 27.8838V27.7266C608.07 27.1934 608.148 26.6989 608.303 26.2432C608.458 25.7829 608.681 25.3841 608.973 25.0469C609.264 24.7051 609.618 24.4408 610.032 24.2539C610.447 24.0625 610.912 23.9668 611.427 23.9668C611.946 23.9668 612.413 24.0625 612.828 24.2539C613.247 24.4408 613.603 24.7051 613.895 25.0469C614.191 25.3841 614.416 25.7829 614.571 26.2432C614.726 26.6989 614.804 27.1934 614.804 27.7266V27.8838C614.804 28.417 614.726 28.9115 614.571 29.3672C614.416 29.8229 614.191 30.2217 613.895 30.5635C613.603 30.9007 613.25 31.165 612.835 31.3564C612.425 31.5433 611.96 31.6367 611.44 31.6367C610.921 31.6367 610.454 31.5433 610.039 31.3564C609.624 31.165 609.269 30.9007 608.973 30.5635C608.681 30.2217 608.458 29.8229 608.303 29.3672C608.148 28.9115 608.07 28.417 608.07 27.8838ZM609.335 27.7266V27.8838C609.335 28.2529 609.378 28.6016 609.465 28.9297C609.551 29.2533 609.681 29.5404 609.854 29.791C610.032 30.0417 610.253 30.2399 610.518 30.3857C610.782 30.527 611.09 30.5977 611.44 30.5977C611.787 30.5977 612.09 30.527 612.35 30.3857C612.614 30.2399 612.833 30.0417 613.006 29.791C613.179 29.5404 613.309 29.2533 613.396 28.9297C613.487 28.6016 613.532 28.2529 613.532 27.8838V27.7266C613.532 27.362 613.487 27.0179 613.396 26.6943C613.309 26.3662 613.177 26.0768 612.999 25.8262C612.826 25.571 612.607 25.3704 612.343 25.2246C612.083 25.0788 611.778 25.0059 611.427 25.0059C611.08 25.0059 610.775 25.0788 610.511 25.2246C610.251 25.3704 610.032 25.571 609.854 25.8262C609.681 26.0768 609.551 26.3662 609.465 26.6943C609.378 27.0179 609.335 27.362 609.335 27.7266ZM621.182 24.1035H622.33V31.3428C622.33 31.9945 622.198 32.5505 621.934 33.0107C621.669 33.471 621.3 33.8197 620.826 34.0566C620.357 34.2982 619.814 34.4189 619.199 34.4189C618.944 34.4189 618.643 34.3779 618.297 34.2959C617.955 34.2184 617.618 34.084 617.285 33.8926C616.957 33.7057 616.681 33.4528 616.458 33.1338L617.121 32.3818C617.431 32.7555 617.755 33.0153 618.092 33.1611C618.434 33.307 618.771 33.3799 619.104 33.3799C619.505 33.3799 619.851 33.3047 620.143 33.1543C620.434 33.0039 620.66 32.7806 620.819 32.4844C620.983 32.1927 621.065 31.8327 621.065 31.4043V25.7305L621.182 24.1035ZM616.089 27.8838V27.7402C616.089 27.1751 616.155 26.6624 616.287 26.2021C616.424 25.7373 616.618 25.3385 616.868 25.0059C617.123 24.6732 617.431 24.418 617.791 24.2402C618.151 24.0579 618.557 23.9668 619.008 23.9668C619.473 23.9668 619.878 24.0488 620.225 24.2129C620.576 24.3724 620.872 24.6071 621.113 24.917C621.359 25.2223 621.553 25.5915 621.694 26.0244C621.836 26.4574 621.934 26.9473 621.988 27.4941V28.123C621.938 28.6654 621.84 29.153 621.694 29.5859C621.553 30.0189 621.359 30.388 621.113 30.6934C620.872 30.9987 620.576 31.2334 620.225 31.3975C619.874 31.557 619.464 31.6367 618.994 31.6367C618.552 31.6367 618.151 31.5433 617.791 31.3564C617.436 31.1696 617.13 30.9076 616.875 30.5703C616.62 30.2331 616.424 29.8366 616.287 29.3809C616.155 28.9206 616.089 28.4215 616.089 27.8838ZM617.354 27.7402V27.8838C617.354 28.2529 617.39 28.5993 617.463 28.9229C617.54 29.2464 617.657 29.5312 617.812 29.7773C617.971 30.0234 618.174 30.2171 618.42 30.3584C618.666 30.4951 618.96 30.5635 619.302 30.5635C619.721 30.5635 620.067 30.4746 620.341 30.2969C620.614 30.1191 620.831 29.8844 620.99 29.5928C621.154 29.3011 621.282 28.9844 621.373 28.6426V26.9951C621.323 26.7445 621.245 26.5029 621.141 26.2705C621.04 26.0335 620.908 25.8239 620.744 25.6416C620.585 25.4548 620.386 25.3066 620.149 25.1973C619.912 25.0879 619.634 25.0332 619.315 25.0332C618.969 25.0332 618.671 25.1061 618.42 25.252C618.174 25.3932 617.971 25.5892 617.812 25.8398C617.657 26.0859 617.54 26.373 617.463 26.7012C617.39 27.0247 617.354 27.3711 617.354 27.7402ZM625.625 21V31.5H624.354V21H625.625ZM630.725 31.6367C630.21 31.6367 629.743 31.5501 629.323 31.377C628.909 31.1992 628.551 30.9508 628.25 30.6318C627.954 30.3128 627.726 29.9346 627.566 29.4971C627.407 29.0596 627.327 28.5811 627.327 28.0615V27.7744C627.327 27.1729 627.416 26.6374 627.594 26.168C627.771 25.694 628.013 25.293 628.318 24.9648C628.624 24.6367 628.97 24.3883 629.357 24.2197C629.745 24.0511 630.146 23.9668 630.561 23.9668C631.089 23.9668 631.545 24.0579 631.928 24.2402C632.315 24.4225 632.632 24.6777 632.878 25.0059C633.124 25.3294 633.306 25.7122 633.425 26.1543C633.543 26.5918 633.603 27.0703 633.603 27.5898V28.1572H628.079V27.125H632.338V27.0293C632.32 26.7012 632.251 26.3822 632.133 26.0723C632.019 25.7624 631.837 25.5072 631.586 25.3066C631.335 25.1061 630.993 25.0059 630.561 25.0059C630.273 25.0059 630.009 25.0674 629.768 25.1904C629.526 25.3089 629.319 25.4867 629.146 25.7236C628.972 25.9606 628.838 26.25 628.742 26.5918C628.646 26.9336 628.599 27.3278 628.599 27.7744V28.0615C628.599 28.4124 628.646 28.7428 628.742 29.0527C628.842 29.3581 628.986 29.627 629.173 29.8594C629.364 30.0918 629.594 30.2741 629.863 30.4062C630.137 30.5384 630.447 30.6045 630.793 30.6045C631.24 30.6045 631.618 30.5133 631.928 30.3311C632.238 30.1488 632.509 29.9049 632.741 29.5996L633.507 30.208C633.347 30.4495 633.145 30.6797 632.898 30.8984C632.652 31.1172 632.349 31.2949 631.989 31.4316C631.634 31.5684 631.212 31.6367 630.725 31.6367ZM635.1 30.8301C635.1 30.6159 635.166 30.4359 635.298 30.29C635.435 30.1396 635.631 30.0645 635.886 30.0645C636.141 30.0645 636.335 30.1396 636.467 30.29C636.604 30.4359 636.672 30.6159 636.672 30.8301C636.672 31.0397 636.604 31.2174 636.467 31.3633C636.335 31.5091 636.141 31.582 635.886 31.582C635.631 31.582 635.435 31.5091 635.298 31.3633C635.166 31.2174 635.1 31.0397 635.1 30.8301ZM641.73 30.5977C642.031 30.5977 642.309 30.5361 642.564 30.4131C642.82 30.29 643.029 30.1214 643.193 29.9072C643.357 29.6885 643.451 29.4401 643.474 29.1621H644.677C644.654 29.5996 644.506 30.0075 644.232 30.3857C643.964 30.7594 643.61 31.0625 643.173 31.2949C642.735 31.5228 642.255 31.6367 641.73 31.6367C641.174 31.6367 640.689 31.5387 640.274 31.3428C639.864 31.1468 639.522 30.8779 639.249 30.5361C638.98 30.1943 638.777 29.8024 638.641 29.3604C638.508 28.9137 638.442 28.4421 638.442 27.9453V27.6582C638.442 27.1615 638.508 26.6921 638.641 26.25C638.777 25.8034 638.98 25.4092 639.249 25.0674C639.522 24.7256 639.864 24.4567 640.274 24.2607C640.689 24.0648 641.174 23.9668 641.73 23.9668C642.309 23.9668 642.815 24.0853 643.248 24.3223C643.681 24.5547 644.021 24.8737 644.267 25.2793C644.517 25.6803 644.654 26.1361 644.677 26.6465H643.474C643.451 26.3411 643.364 26.0654 643.214 25.8193C643.068 25.5732 642.868 25.3773 642.612 25.2314C642.362 25.0811 642.068 25.0059 641.73 25.0059C641.343 25.0059 641.017 25.0833 640.753 25.2383C640.493 25.3887 640.286 25.5938 640.131 25.8535C639.98 26.1087 639.871 26.3936 639.803 26.708C639.739 27.0179 639.707 27.3346 639.707 27.6582V27.9453C639.707 28.2689 639.739 28.5879 639.803 28.9023C639.867 29.2168 639.974 29.5016 640.124 29.7568C640.279 30.012 640.486 30.2171 640.746 30.3721C641.01 30.5225 641.339 30.5977 641.73 30.5977ZM645.764 27.8838V27.7266C645.764 27.1934 645.841 26.6989 645.996 26.2432C646.151 25.7829 646.374 25.3841 646.666 25.0469C646.958 24.7051 647.311 24.4408 647.726 24.2539C648.14 24.0625 648.605 23.9668 649.12 23.9668C649.64 23.9668 650.107 24.0625 650.521 24.2539C650.941 24.4408 651.296 24.7051 651.588 25.0469C651.884 25.3841 652.11 25.7829 652.265 26.2432C652.42 26.6989 652.497 27.1934 652.497 27.7266V27.8838C652.497 28.417 652.42 28.9115 652.265 29.3672C652.11 29.8229 651.884 30.2217 651.588 30.5635C651.296 30.9007 650.943 31.165 650.528 31.3564C650.118 31.5433 649.653 31.6367 649.134 31.6367C648.614 31.6367 648.147 31.5433 647.732 31.3564C647.318 31.165 646.962 30.9007 646.666 30.5635C646.374 30.2217 646.151 29.8229 645.996 29.3672C645.841 28.9115 645.764 28.417 645.764 27.8838ZM647.028 27.7266V27.8838C647.028 28.2529 647.072 28.6016 647.158 28.9297C647.245 29.2533 647.375 29.5404 647.548 29.791C647.726 30.0417 647.947 30.2399 648.211 30.3857C648.475 30.527 648.783 30.5977 649.134 30.5977C649.48 30.5977 649.783 30.527 650.043 30.3857C650.307 30.2399 650.526 30.0417 650.699 29.791C650.872 29.5404 651.002 29.2533 651.089 28.9297C651.18 28.6016 651.226 28.2529 651.226 27.8838V27.7266C651.226 27.362 651.18 27.0179 651.089 26.6943C651.002 26.3662 650.87 26.0768 650.692 25.8262C650.519 25.571 650.3 25.3704 650.036 25.2246C649.776 25.0788 649.471 25.0059 649.12 25.0059C648.774 25.0059 648.468 25.0788 648.204 25.2246C647.944 25.3704 647.726 25.571 647.548 25.8262C647.375 26.0768 647.245 26.3662 647.158 26.6943C647.072 27.0179 647.028 27.362 647.028 27.7266ZM655.341 25.5732V31.5H654.069V24.1035H655.272L655.341 25.5732ZM655.081 27.5215L654.493 27.501C654.498 26.9951 654.564 26.528 654.691 26.0996C654.819 25.6667 655.008 25.2907 655.259 24.9717C655.509 24.6527 655.822 24.4066 656.195 24.2334C656.569 24.0557 657.002 23.9668 657.494 23.9668C657.84 23.9668 658.16 24.0169 658.451 24.1172C658.743 24.2129 658.996 24.3656 659.21 24.5752C659.424 24.7848 659.59 25.0537 659.709 25.3818C659.827 25.71 659.887 26.1064 659.887 26.5713V31.5H658.622V26.6328C658.622 26.2454 658.556 25.9355 658.424 25.7031C658.296 25.4707 658.114 25.3021 657.877 25.1973C657.64 25.0879 657.362 25.0332 657.043 25.0332C656.669 25.0332 656.357 25.0993 656.106 25.2314C655.856 25.3636 655.655 25.5459 655.505 25.7783C655.354 26.0107 655.245 26.2773 655.177 26.5781C655.113 26.8743 655.081 27.1888 655.081 27.5215ZM659.873 26.8242L659.025 27.084C659.03 26.6784 659.096 26.2887 659.224 25.915C659.356 25.5413 659.545 25.2087 659.791 24.917C660.042 24.6253 660.349 24.3952 660.714 24.2266C661.078 24.0534 661.495 23.9668 661.965 23.9668C662.361 23.9668 662.712 24.0192 663.018 24.124C663.327 24.2288 663.587 24.3906 663.797 24.6094C664.011 24.8236 664.173 25.0993 664.282 25.4365C664.392 25.7738 664.446 26.1748 664.446 26.6396V31.5H663.175V26.626C663.175 26.2113 663.109 25.89 662.977 25.6621C662.849 25.4297 662.667 25.2679 662.43 25.1768C662.197 25.0811 661.919 25.0332 661.596 25.0332C661.318 25.0332 661.072 25.0811 660.857 25.1768C660.643 25.2725 660.463 25.4046 660.317 25.5732C660.172 25.7373 660.06 25.9264 659.982 26.1406C659.91 26.3548 659.873 26.5827 659.873 26.8242Z" fill="#999999"/>
<path d="M992.266 26.623C992.266 29.7397 994.767 32.2407 997.877 32.2407C1000.99 32.2407 1003.48 29.7397 1003.48 26.623C1003.48 26.3184 1003.27 26.0962 1002.96 26.0962C1002.66 26.0962 1002.46 26.3184 1002.46 26.623C1002.46 29.1748 1000.42 31.2188 997.877 31.2188C995.332 31.2188 993.288 29.1748 993.288 26.623C993.288 24.0776 995.332 22.04 997.877 22.04C998.359 22.04 998.81 22.0781 999.185 22.167L997.287 24.0459C997.191 24.1475 997.141 24.2744 997.141 24.4077C997.141 24.6997 997.356 24.9155 997.642 24.9155C997.801 24.9155 997.921 24.8647 998.01 24.7695L1000.63 22.1416C1000.74 22.0337 1000.78 21.9067 1000.78 21.7607C1000.78 21.6211 1000.73 21.4814 1000.63 21.3799L998.01 18.7266C997.921 18.625 997.794 18.5742 997.642 18.5742C997.356 18.5742 997.141 18.8027 997.141 19.0947C997.141 19.228 997.191 19.355 997.28 19.4565L998.969 21.126C998.639 21.0625 998.264 21.0181 997.877 21.0181C994.767 21.0181 992.266 23.5127 992.266 26.623Z" fill="black" fill-opacity="0.4"/>
<path d="M1339.49 27.4844C1339.83 27.4844 1340.12 27.2031 1340.12 26.875V18.8516L1340.07 17.6797L1340.59 18.2344L1341.78 19.5C1341.89 19.625 1342.05 19.6875 1342.2 19.6875C1342.52 19.6875 1342.77 19.4531 1342.77 19.1328C1342.77 18.9688 1342.7 18.8438 1342.59 18.7266L1339.95 16.1797C1339.79 16.0234 1339.66 15.9688 1339.49 15.9688C1339.34 15.9688 1339.2 16.0234 1339.04 16.1797L1336.4 18.7266C1336.28 18.8438 1336.22 18.9688 1336.22 19.1328C1336.22 19.4531 1336.45 19.6875 1336.78 19.6875C1336.93 19.6875 1337.1 19.625 1337.21 19.5L1338.39 18.2344L1338.92 17.6797L1338.88 18.8516V26.875C1338.88 27.2031 1339.16 27.4844 1339.49 27.4844ZM1335.02 33.6016H1343.98C1345.61 33.6016 1346.43 32.7891 1346.43 31.1797V23.3828C1346.43 21.7734 1345.61 20.9609 1343.98 20.9609H1341.8V22.2188H1343.95C1344.73 22.2188 1345.17 22.6406 1345.17 23.4531V31.1094C1345.17 31.9219 1344.73 32.3438 1343.95 32.3438H1335.03C1334.25 32.3438 1333.82 31.9219 1333.82 31.1094V23.4531C1333.82 22.6406 1334.25 22.2188 1335.03 22.2188H1337.2V20.9609H1335.02C1333.38 20.9609 1332.56 21.7734 1332.56 23.3828V31.1797C1332.56 32.7891 1333.38 33.6016 1335.02 33.6016Z" fill="black" fill-opacity="0.6"/>
<path d="M1369.55 25.3594C1369.55 25.7422 1369.88 26.0547 1370.25 26.0547H1375.3V31.1094C1375.3 31.4844 1375.62 31.8047 1376 31.8047C1376.38 31.8047 1376.7 31.4844 1376.7 31.1094V26.0547H1381.75C1382.12 26.0547 1382.45 25.7422 1382.45 25.3594C1382.45 24.9766 1382.12 24.6562 1381.75 24.6562H1376.7V19.6094C1376.7 19.2344 1376.38 18.9141 1376 18.9141C1375.62 18.9141 1375.3 19.2344 1375.3 19.6094V24.6562H1370.25C1369.88 24.6562 1369.55 24.9766 1369.55 25.3594Z" fill="black" fill-opacity="0.6"/>
<path d="M1407.3 24.7266H1410.86C1411.85 24.7266 1412.35 24.2266 1412.35 23.1953V19.7031C1412.35 18.6719 1411.85 18.1797 1410.86 18.1797H1407.3C1406.3 18.1797 1405.8 18.6719 1405.8 19.7031V23.1953C1405.8 24.2266 1406.3 24.7266 1407.3 24.7266ZM1415.14 24.7266H1418.7C1419.69 24.7266 1420.19 24.2266 1420.19 23.1953V19.7031C1420.19 18.6719 1419.69 18.1797 1418.7 18.1797H1415.14C1414.14 18.1797 1413.64 18.6719 1413.64 19.7031V23.1953C1413.64 24.2266 1414.14 24.7266 1415.14 24.7266ZM1407.31 23.625C1407.04 23.625 1406.91 23.4844 1406.91 23.1953V19.7031C1406.91 19.4219 1407.04 19.2812 1407.31 19.2812H1410.84C1411.11 19.2812 1411.25 19.4219 1411.25 19.7031V23.1953C1411.25 23.4844 1411.11 23.625 1410.84 23.625H1407.31ZM1415.16 23.625C1414.88 23.625 1414.74 23.4844 1414.74 23.1953V19.7031C1414.74 19.4219 1414.88 19.2812 1415.16 19.2812H1418.68C1418.95 19.2812 1419.09 19.4219 1419.09 19.7031V23.1953C1419.09 23.4844 1418.95 23.625 1418.68 23.625H1415.16ZM1407.3 32.5625H1410.86C1411.85 32.5625 1412.35 32.0703 1412.35 31.0391V27.5391C1412.35 26.5156 1411.85 26.0156 1410.86 26.0156H1407.3C1406.3 26.0156 1405.8 26.5156 1405.8 27.5391V31.0391C1405.8 32.0703 1406.3 32.5625 1407.3 32.5625ZM1415.14 32.5625H1418.7C1419.69 32.5625 1420.19 32.0703 1420.19 31.0391V27.5391C1420.19 26.5156 1419.69 26.0156 1418.7 26.0156H1415.14C1414.14 26.0156 1413.64 26.5156 1413.64 27.5391V31.0391C1413.64 32.0703 1414.14 32.5625 1415.14 32.5625ZM1407.31 31.4609C1407.04 31.4609 1406.91 31.3203 1406.91 31.0391V27.5469C1406.91 27.2578 1407.04 27.1172 1407.31 27.1172H1410.84C1411.11 27.1172 1411.25 27.2578 1411.25 27.5469V31.0391C1411.25 31.3203 1411.11 31.4609 1410.84 31.4609H1407.31ZM1415.16 31.4609C1414.88 31.4609 1414.74 31.3203 1414.74 31.0391V27.5469C1414.74 27.2578 1414.88 27.1172 1415.16 27.1172H1418.68C1418.95 27.1172 1419.09 27.2578 1419.09 27.5469V31.0391C1419.09 31.3203 1418.95 31.4609 1418.68 31.4609H1415.16Z" fill="black" fill-opacity="0.6"/>
</g>
<defs>
<filter id="filter0_b_402_182" x="-48" y="-48" width="1536" height="148" filterUnits="userSpaceOnUse" color-interpolation-filters="sRGB">
<feFlood flood-opacity="0" result="BackgroundImageFix"/>
<feGaussianBlur in="BackgroundImageFix" stdDeviation="24"/>
<feComposite in2="SourceAlpha" operator="in" result="effect1_backgroundBlur_402_182"/>
<feBlend mode="normal" in="SourceGraphic" in2="effect1_backgroundBlur_402_182" result="shape"/>
</filter>
</defs>
</svg>
